<?xml version="1.0" encoding="utf-8"?>
<!-- Generator: Adobe Illustrator 22.1.0, SVG Export Plug-In . SVG Version: 6.00 Build 0)  -->
<svg version="1.1" xmlns="http://www.w3.org/2000/svg" xmlns:xlink="http://www.w3.org/1999/xlink" x="0px" y="0px"
	 viewBox="0 0 80 130" style="enable-background:new 0 0 80 130;" xml:space="preserve">
<style type="text/css">
	.st0{fill:#232F3E;}
	.st1{fill:#527FFF;}
	.st2{fill:#FFFFFF;}
	.st3{fill:#AAB8B8;}
	.st4{fill:url(#SVGID_1_);}
	.st5{fill:url(#SVGID_2_);}
	.st6{fill:none;stroke:url(#SVGID_3_);stroke-width:1.5;stroke-miterlimit:10;}
	.st7{fill:none;stroke:url(#SVGID_4_);stroke-width:1.5;stroke-miterlimit:10;}
	.st8{fill:url(#SVGID_5_);}
	.st9{fill:url(#SVGID_6_);}
	.st10{fill:url(#SVGID_7_);}
	.st11{fill:url(#SVGID_8_);}
	.st12{fill:url(#SVGID_9_);}
	.st13{fill:none;stroke:#FFFFFF;stroke-width:1.5;stroke-miterlimit:10;}
	.st14{fill:#8BC53F;}
	.st15{display:none;}
	.st16{display:inline;fill:#232F3E;}
	.st17{fill:none;stroke:url(#SVGID_10_);stroke-width:1.5;stroke-miterlimit:10;}
	.st18{fill:none;stroke:url(#SVGID_11_);stroke-width:1.5;stroke-miterlimit:10;}
	.st19{fill:url(#SVGID_12_);}
	.st20{fill:url(#SVGID_13_);}
	.st21{fill:url(#SVGID_14_);}
	.st22{fill:url(#SVGID_15_);}
	.st23{fill:url(#SVGID_16_);}
	.st24{fill:none;stroke:#232F3E;stroke-width:1.5;stroke-miterlimit:10;}
	.st25{display:inline;opacity:0.3;}
	.st26{fill:#EA2B7B;}
	.st27{display:inline;opacity:0.29;}
	.st28{fill:#EB008B;}
</style>
<g id="CARDS">
	<g>
		<g>
			<rect x="1" y="1" class="st0" width="78" height="78"/>
			<path class="st2" d="M0,0v80h0v50h80V80h0V0H0z M1,1h78v78H1V1z"/>
		</g>
		<g>
			<g>
				<path class="st0" d="M15.79,92.35l-0.43-1.82h-2l-0.42,1.82h-1.77l2.31-7.62h1.87l2.3,7.62H15.79z M13.61,89.43h1.49l-0.76-3.16
					L13.61,89.43z"/>
				<path class="st0" d="M24.5,92.35v-3.71c0-0.32-0.05-0.55-0.14-0.69c-0.09-0.15-0.25-0.22-0.46-0.22c-0.23,0-0.5,0.09-0.79,0.26
					c0.01,0.04,0.01,0.08,0.01,0.12s0,0.09,0,0.13v4.1h-1.65v-3.71c0-0.32-0.05-0.55-0.14-0.69c-0.09-0.15-0.25-0.22-0.46-0.22
					c-0.22,0-0.49,0.09-0.78,0.26v4.36h-1.65v-5.62h1.35l0.13,0.51c0.64-0.43,1.25-0.65,1.81-0.65c0.57,0,0.97,0.22,1.2,0.67
					c0.66-0.45,1.27-0.67,1.83-0.67c0.45,0,0.79,0.14,1.04,0.42c0.24,0.28,0.36,0.69,0.36,1.22v4.12H24.5z"/>
				<path class="st0" d="M30.45,92.35l-0.14-0.51c-0.14,0.19-0.33,0.35-0.59,0.47c-0.26,0.12-0.52,0.18-0.78,0.18
					c-0.5,0-0.89-0.15-1.18-0.45s-0.43-0.71-0.43-1.23c0-0.55,0.18-0.98,0.53-1.3c0.35-0.32,0.83-0.48,1.43-0.48
					c0.25,0,0.56,0.04,0.93,0.13v-0.51c0-0.38-0.05-0.64-0.16-0.78c-0.11-0.13-0.31-0.2-0.61-0.2c-0.48,0-1.07,0.12-1.77,0.35v-1
					c0.23-0.14,0.54-0.25,0.92-0.33c0.38-0.08,0.76-0.12,1.16-0.12c0.7,0,1.21,0.14,1.52,0.43c0.31,0.29,0.47,0.75,0.47,1.39v3.94
					H30.45z M29.42,91.43c0.26,0,0.53-0.12,0.79-0.35V90c-0.18-0.05-0.38-0.08-0.63-0.08c-0.23,0-0.41,0.07-0.54,0.2
					c-0.12,0.14-0.19,0.33-0.19,0.59c0,0.22,0.05,0.39,0.15,0.52S29.25,91.43,29.42,91.43z"/>
				<path class="st0" d="M32.72,92.35v-1.07l2.49-3.4h-2.4v-1.16h4.13v1.07l-2.49,3.4h2.54v1.16H32.72z"/>
				<path class="st0" d="M40.23,92.49c-0.79,0-1.41-0.26-1.84-0.77s-0.65-1.24-0.65-2.18c0-0.95,0.22-1.68,0.65-2.19
					c0.43-0.51,1.05-0.77,1.84-0.77s1.41,0.26,1.84,0.77c0.43,0.51,0.65,1.24,0.65,2.19c0,0.94-0.22,1.66-0.65,2.18
					S41.03,92.49,40.23,92.49z M40.23,91.34c0.3,0,0.51-0.14,0.64-0.43s0.2-0.75,0.2-1.37s-0.07-1.08-0.2-1.38
					c-0.13-0.29-0.35-0.44-0.64-0.44s-0.51,0.15-0.64,0.44c-0.13,0.29-0.2,0.75-0.2,1.38s0.07,1.08,0.2,1.37
					S39.94,91.34,40.23,91.34z"/>
				<path class="st0" d="M46.99,92.35v-3.7c0-0.32-0.05-0.56-0.14-0.7c-0.1-0.15-0.26-0.22-0.49-0.22c-0.25,0-0.52,0.09-0.82,0.26
					v4.36h-1.65v-5.62h1.35l0.13,0.51c0.64-0.43,1.26-0.65,1.84-0.65c0.47,0,0.82,0.14,1.07,0.42c0.24,0.28,0.37,0.69,0.37,1.22
					v4.12H46.99z"/>
				<path class="st0" d="M52.69,92.35v-7.62h4.35v1.18h-2.66v2.06h2.08v1.18h-2.08v3.21H52.69z"/>
				<path class="st0" d="M59.39,88.95c-0.59-0.29-1.02-0.61-1.28-0.95c-0.26-0.34-0.39-0.75-0.39-1.23c0-0.45,0.11-0.84,0.34-1.17
					c0.22-0.33,0.53-0.59,0.92-0.77c0.39-0.18,0.84-0.27,1.34-0.27c0.63,0,1.27,0.13,1.89,0.4v1.17c-0.65-0.22-1.22-0.33-1.72-0.33
					c-0.34,0-0.6,0.08-0.79,0.23c-0.19,0.15-0.29,0.37-0.29,0.64c0,0.23,0.06,0.41,0.19,0.56c0.12,0.15,0.36,0.31,0.72,0.48
					l0.65,0.32c0.42,0.21,0.75,0.41,0.99,0.62s0.43,0.43,0.54,0.69s0.17,0.56,0.17,0.92c0,0.7-0.25,1.25-0.74,1.66
					s-1.17,0.61-2.04,0.61c-0.38,0-0.75-0.04-1.13-0.12c-0.38-0.08-0.69-0.19-0.95-0.32v-1.15c0.3,0.1,0.63,0.19,1.01,0.26
					c0.37,0.07,0.69,0.1,0.96,0.1c0.39,0,0.68-0.08,0.88-0.25c0.2-0.17,0.3-0.4,0.3-0.71c0-0.23-0.07-0.42-0.21-0.58
					c-0.14-0.16-0.38-0.32-0.71-0.48L59.39,88.95z"/>
				<path class="st0" d="M66.63,92.35l-1-1.78l-0.86,1.78h-1.63l1.72-2.83l-1.7-2.79h1.77l0.9,1.73l0.83-1.73h1.63l-1.7,2.79
					l1.79,2.83H66.63z"/>
				<path class="st0" d="M10.9,106.35v-4.52h-0.78v-0.92l0.78-0.15v-0.66c0-0.69,0.16-1.2,0.48-1.54c0.32-0.33,0.82-0.5,1.48-0.5
					c0.38,0,0.74,0.07,1.08,0.21v1.01c-0.23-0.05-0.44-0.08-0.63-0.08c-0.3,0-0.5,0.06-0.61,0.17c-0.11,0.11-0.16,0.32-0.16,0.62
					v0.75h1.34v1.1h-1.34v4.52H10.9z"/>
				<path class="st0" d="M16.85,106.49c-0.79,0-1.41-0.26-1.84-0.77s-0.65-1.24-0.65-2.18c0-0.95,0.22-1.68,0.65-2.19
					c0.43-0.51,1.05-0.77,1.84-0.77s1.41,0.26,1.84,0.77c0.43,0.51,0.65,1.24,0.65,2.19c0,0.94-0.22,1.66-0.65,2.18
					S17.65,106.49,16.85,106.49z M16.85,105.34c0.3,0,0.51-0.14,0.64-0.43s0.2-0.75,0.2-1.37s-0.07-1.08-0.2-1.38
					c-0.13-0.29-0.35-0.44-0.64-0.44s-0.51,0.15-0.64,0.44c-0.13,0.29-0.2,0.75-0.2,1.38s0.07,1.08,0.2,1.37
					S16.55,105.34,16.85,105.34z"/>
				<path class="st0" d="M20.5,106.35v-5.62h1.35l0.18,0.73c0.24-0.27,0.48-0.47,0.72-0.59c0.24-0.12,0.49-0.19,0.75-0.19
					c0.13,0,0.26,0.01,0.39,0.03v1.33c-0.23-0.04-0.44-0.06-0.64-0.06c-0.39,0-0.75,0.09-1.1,0.26v4.1H20.5z"/>
				<path class="st0" d="M32.1,106.35l-0.94-5.62l-0.89,5.62H28.4l-1.78-7.62h1.7l1.06,6.06l0.92-5.75h1.83l0.94,5.65l1.02-5.96
					h1.66l-1.78,7.62H32.1z"/>
				<path class="st0" d="M37.49,99.81c-0.3,0-0.53-0.08-0.71-0.23s-0.26-0.35-0.26-0.61s0.09-0.46,0.26-0.61s0.41-0.23,0.71-0.23
					c0.29,0,0.52,0.08,0.7,0.23c0.18,0.15,0.26,0.35,0.26,0.61s-0.09,0.46-0.26,0.61C38.01,99.74,37.78,99.81,37.49,99.81z
					 M36.66,106.35v-5.62h1.65v5.62H36.66z"/>
				<path class="st0" d="M42.87,106.35v-3.7c0-0.32-0.05-0.56-0.14-0.7c-0.1-0.15-0.26-0.22-0.49-0.22c-0.25,0-0.52,0.09-0.82,0.26
					v4.36h-1.65v-5.62h1.35l0.13,0.51c0.64-0.43,1.26-0.65,1.84-0.65c0.47,0,0.82,0.14,1.07,0.42c0.24,0.28,0.37,0.69,0.37,1.22
					v4.12H42.87z"/>
				<path class="st0" d="M49.17,106.35l-0.13-0.48c-0.18,0.18-0.4,0.33-0.63,0.43c-0.24,0.1-0.48,0.15-0.72,0.15
					c-0.65,0-1.15-0.25-1.51-0.76s-0.54-1.21-0.54-2.12c0-0.94,0.18-1.67,0.55-2.19c0.37-0.52,0.88-0.79,1.53-0.79
					c0.18,0,0.4,0.04,0.63,0.13s0.44,0.2,0.61,0.33v-2.84h1.65v8.14H49.17z M48.25,105.32c0.24,0,0.48-0.07,0.72-0.22v-3.15
					c-0.27-0.17-0.54-0.25-0.79-0.25c-0.31,0-0.54,0.14-0.67,0.43c-0.14,0.29-0.21,0.75-0.21,1.39c0,0.62,0.08,1.08,0.23,1.36
					C47.68,105.18,47.92,105.32,48.25,105.32z"/>
				<path class="st0" d="M54.27,106.49c-0.79,0-1.41-0.26-1.84-0.77s-0.65-1.24-0.65-2.18c0-0.95,0.22-1.68,0.65-2.19
					c0.43-0.51,1.05-0.77,1.84-0.77s1.41,0.26,1.84,0.77c0.43,0.51,0.65,1.24,0.65,2.19c0,0.94-0.22,1.66-0.65,2.18
					S55.06,106.49,54.27,106.49z M54.27,105.34c0.3,0,0.51-0.14,0.64-0.43s0.2-0.75,0.2-1.37s-0.07-1.08-0.2-1.38
					c-0.13-0.29-0.35-0.44-0.64-0.44s-0.51,0.15-0.64,0.44c-0.13,0.29-0.2,0.75-0.2,1.38s0.07,1.08,0.2,1.37
					S53.97,105.34,54.27,105.34z"/>
				<path class="st0" d="M61.96,106.35l-0.8-4.03l-0.77,4.03h-1.55l-1.55-5.62h1.71l0.71,4.04l0.77-4.04h1.47l0.82,4.22l0.65-4.22
					h1.66l-1.57,5.62H61.96z"/>
				<path class="st0" d="M67.86,104.77c0-0.26-0.17-0.47-0.52-0.63l-0.72-0.34c-0.75-0.35-1.13-0.88-1.13-1.59
					c0-0.49,0.19-0.89,0.55-1.18s0.86-0.45,1.47-0.45c0.53,0,1.04,0.12,1.53,0.35v1c-0.23-0.08-0.46-0.14-0.7-0.19
					c-0.24-0.05-0.44-0.07-0.6-0.07c-0.51,0-0.77,0.18-0.77,0.54c0,0.23,0.21,0.45,0.64,0.66l0.72,0.34
					c0.35,0.17,0.61,0.38,0.77,0.62c0.16,0.25,0.24,0.56,0.24,0.93c0,0.54-0.18,0.96-0.55,1.26c-0.37,0.31-0.86,0.46-1.48,0.46
					c-0.67,0-1.27-0.15-1.82-0.44v-1c0.68,0.23,1.22,0.35,1.62,0.35c0.25,0,0.44-0.05,0.57-0.17
					C67.79,105.12,67.86,104.97,67.86,104.77z"/>
				<path class="st0" d="M15.4,120.35v-7.62h4.35v1.18h-2.66v2.06h2.08v1.18h-2.08v3.21H15.4z"/>
				<path class="st0" d="M21.53,113.81c-0.3,0-0.53-0.08-0.71-0.23s-0.26-0.35-0.26-0.61s0.09-0.46,0.26-0.61s0.41-0.23,0.71-0.23
					c0.29,0,0.52,0.08,0.7,0.23c0.18,0.15,0.26,0.35,0.26,0.61s-0.09,0.46-0.26,0.61C22.05,113.74,21.82,113.81,21.53,113.81z
					 M20.7,120.35v-5.62h1.65v5.62H20.7z"/>
				<path class="st0" d="M26.21,120.25c-0.29,0.11-0.61,0.17-0.96,0.17c-0.48,0-0.84-0.12-1.08-0.37c-0.24-0.25-0.36-0.62-0.36-1.13
					v-6.71h1.65v6.54c0,0.19,0.03,0.32,0.08,0.4c0.05,0.08,0.16,0.12,0.32,0.12c0.06,0,0.18-0.01,0.35-0.03V120.25z"/>
				<path class="st0" d="M28.31,117.92c0.02,0.53,0.14,0.9,0.36,1.12c0.22,0.22,0.57,0.33,1.06,0.33c0.18,0,0.41-0.03,0.68-0.08
					c0.27-0.05,0.54-0.13,0.8-0.21v1c-0.22,0.13-0.5,0.24-0.83,0.31c-0.33,0.07-0.66,0.11-0.99,0.11c-1.72,0-2.58-0.98-2.58-2.95
					c0-0.96,0.21-1.69,0.63-2.2s1.03-0.76,1.83-0.76c1.37,0,2.05,0.76,2.05,2.29c0,0.38-0.04,0.73-0.12,1.04H28.31z M29.23,115.6
					c-0.58,0-0.88,0.46-0.92,1.36h1.61v-0.25c0-0.4-0.06-0.68-0.17-0.85S29.47,115.6,29.23,115.6z"/>
				<path class="st0" d="M36.43,116.95c-0.59-0.29-1.02-0.61-1.28-0.95c-0.26-0.34-0.39-0.75-0.39-1.23c0-0.45,0.11-0.84,0.34-1.17
					c0.22-0.33,0.53-0.59,0.92-0.77c0.39-0.18,0.84-0.27,1.34-0.27c0.63,0,1.27,0.13,1.89,0.4v1.17c-0.65-0.22-1.22-0.33-1.72-0.33
					c-0.34,0-0.6,0.08-0.79,0.23c-0.19,0.15-0.29,0.37-0.29,0.64c0,0.23,0.06,0.41,0.19,0.56c0.12,0.15,0.36,0.31,0.72,0.48
					l0.65,0.32c0.42,0.21,0.75,0.41,0.99,0.62s0.43,0.43,0.54,0.69s0.17,0.56,0.17,0.92c0,0.7-0.25,1.25-0.74,1.66
					s-1.17,0.61-2.04,0.61c-0.38,0-0.75-0.04-1.13-0.12c-0.38-0.08-0.69-0.19-0.95-0.32v-1.15c0.3,0.1,0.63,0.19,1.01,0.26
					c0.37,0.07,0.69,0.1,0.96,0.1c0.39,0,0.68-0.08,0.88-0.25c0.2-0.17,0.3-0.4,0.3-0.71c0-0.23-0.07-0.42-0.21-0.58
					c-0.14-0.16-0.38-0.32-0.71-0.48L36.43,116.95z"/>
				<path class="st0" d="M42.07,117.92c0.02,0.53,0.14,0.9,0.36,1.12c0.22,0.22,0.57,0.33,1.06,0.33c0.18,0,0.41-0.03,0.68-0.08
					c0.27-0.05,0.54-0.13,0.8-0.21v1c-0.22,0.13-0.5,0.24-0.83,0.31c-0.33,0.07-0.66,0.11-0.99,0.11c-1.72,0-2.58-0.98-2.58-2.95
					c0-0.96,0.21-1.69,0.63-2.2s1.03-0.76,1.83-0.76c1.37,0,2.05,0.76,2.05,2.29c0,0.38-0.04,0.73-0.12,1.04H42.07z M42.99,115.6
					c-0.58,0-0.88,0.46-0.92,1.36h1.61v-0.25c0-0.4-0.06-0.68-0.17-0.85S43.23,115.6,42.99,115.6z"/>
				<path class="st0" d="M46.22,120.35v-5.62h1.35l0.18,0.73c0.24-0.27,0.48-0.47,0.72-0.59c0.24-0.12,0.49-0.19,0.75-0.19
					c0.13,0,0.26,0.01,0.39,0.03v1.33c-0.23-0.04-0.44-0.06-0.64-0.06c-0.39,0-0.75,0.09-1.1,0.26v4.1H46.22z"/>
				<path class="st0" d="M52.02,120.35l-1.86-5.62h1.75l0.89,4l0.92-4h1.7l-1.84,5.62H52.02z"/>
				<path class="st0" d="M57.4,117.92c0.02,0.53,0.14,0.9,0.36,1.12c0.22,0.22,0.57,0.33,1.06,0.33c0.18,0,0.41-0.03,0.68-0.08
					c0.27-0.05,0.54-0.13,0.8-0.21v1c-0.22,0.13-0.5,0.24-0.83,0.31c-0.33,0.07-0.66,0.11-0.99,0.11c-1.72,0-2.58-0.98-2.58-2.95
					c0-0.96,0.21-1.69,0.63-2.2s1.03-0.76,1.83-0.76c1.37,0,2.05,0.76,2.05,2.29c0,0.38-0.04,0.73-0.12,1.04H57.4z M58.31,115.6
					c-0.58,0-0.88,0.46-0.92,1.36h1.61v-0.25c0-0.4-0.06-0.68-0.17-0.85S58.55,115.6,58.31,115.6z"/>
				<path class="st0" d="M61.54,120.35v-5.62h1.35l0.18,0.73c0.24-0.27,0.48-0.47,0.72-0.59c0.24-0.12,0.49-0.19,0.75-0.19
					c0.13,0,0.26,0.01,0.39,0.03v1.33c-0.23-0.04-0.44-0.06-0.64-0.06c-0.39,0-0.75,0.09-1.1,0.26v4.1H61.54z"/>
			</g>
		</g>
	</g>
	<g>
		<g>
			<g>
				<g>
					<path class="st2" d="M52.5,50.16c-0.5,0-0.97-0.2-1.33-0.55c-0.36-0.36-0.55-0.83-0.55-1.33l0-1.46l13.88-0.02v0.83
						c0,0.67-0.26,1.3-0.73,1.77c-0.47,0.48-1.1,0.74-1.77,0.74L52.5,50.16C52.5,50.16,52.5,50.16,52.5,50.16z M52.04,48.24v0.04
						c0,0.12,0.05,0.24,0.14,0.33s0.2,0.14,0.32,0.14c0,0,0,0,0,0l9.49-0.01c0.29,0,0.56-0.11,0.77-0.32
						c0.05-0.05,0.1-0.11,0.14-0.18L52.04,48.24z"/>
					<g>
						<polygon class="st2" points="51.28,47.54 51.27,38.59 63.83,38.57 63.84,47.52 62.42,47.52 62.41,39.99 52.69,40 52.7,47.53 
													"/>
					</g>
				</g>
			</g>
		</g>
		<g>
			<g>
				<polygon class="st2" points="15.5,49.01 17.09,49.01 17.09,40.31 24.63,40.31 24.63,38.88 17.09,38.88 17.09,31.72 26.01,31.72 
					26.01,30.29 15.5,30.29 				"/>
				<path class="st2" d="M35.33,39.5l-2.89-1.11c-0.96-0.36-1.69-0.7-2.2-1.01c-0.51-0.31-0.88-0.67-1.11-1.05
					c-0.23-0.39-0.34-0.9-0.34-1.53c0-1.12,0.37-1.98,1.11-2.58c0.74-0.6,1.8-0.91,3.19-0.91c1.42,0,3.05,0.32,4.89,0.97v-1.38
					c-0.77-0.34-1.6-0.61-2.47-0.8c-0.87-0.19-1.71-0.28-2.5-0.28c-1.75,0-3.16,0.46-4.23,1.39c-1.07,0.93-1.61,2.14-1.61,3.63
					c0,1.1,0.32,2.02,0.97,2.77c0.65,0.75,1.67,1.39,3.05,1.93l3.13,1.22c1.08,0.41,1.86,0.88,2.35,1.41
					c0.49,0.52,0.73,1.15,0.73,1.89c0,1.21-0.45,2.16-1.34,2.86c-0.89,0.7-2.09,1.05-3.58,1.05c-1.59,0-3.32-0.34-5.22-1.03v1.38
					c1.57,0.76,3.35,1.13,5.35,1.13c1.93,0,3.48-0.5,4.66-1.49c1.18-0.99,1.77-2.29,1.77-3.89c0-1.1-0.3-2.01-0.89-2.74
					C37.58,40.62,36.63,40,35.33,39.5z"/>
				<polygon class="st2" points="45.9,38.32 42.71,33.76 40.45,33.76 44.76,39.84 				"/>
				<polygon class="st2" points="39.96,49.11 42.14,49.11 45.77,43.81 44.79,42.43 				"/>
			</g>
			<g>
				<polygon class="st2" points="49.7,43.6 47.87,41 53.07,33.76 50.92,33.76 46.82,39.62 45.72,41.14 49.7,46.85 49.7,43.94 				
					"/>
			</g>
		</g>
	</g>
</g>
<g id="SPECS">
</g>
<g id="TEXT_-_EDIT">
</g>
<g id="ICONS_-_EDIT">
</g>
<g id="PADDING_1_" class="st15">
</g>
</svg>
