<?xml version="1.0" encoding="utf-8"?>
<!-- Generator: Adobe Illustrator 22.1.0, SVG Export Plug-In . SVG Version: 6.00 Build 0)  -->
<svg version="1.1" xmlns="http://www.w3.org/2000/svg" xmlns:xlink="http://www.w3.org/1999/xlink" x="0px" y="0px"
	 viewBox="0 0 80 130" style="enable-background:new 0 0 80 130;" xml:space="preserve">
<style type="text/css">
	.st0{fill:#232F3E;}
	.st1{fill:#527FFF;}
	.st2{fill:#FFFFFF;}
	.st3{fill:#AAB8B8;}
	.st4{fill:url(#SVGID_1_);}
	.st5{fill:url(#SVGID_2_);}
	.st6{fill:#8BC53F;}
	.st7{display:none;}
	.st8{display:inline;fill:#232F3E;}
	.st9{fill:none;stroke:url(#SVGID_3_);stroke-width:1.5;stroke-miterlimit:10;}
	.st10{fill:none;stroke:url(#SVGID_4_);stroke-width:1.5;stroke-miterlimit:10;}
	.st11{fill:#232F3E;stroke:url(#SVGID_5_);stroke-width:1.5;stroke-miterlimit:10;}
	.st12{fill:none;stroke:url(#SVGID_6_);stroke-width:1.5;stroke-miterlimit:10;}
	.st13{fill:url(#SVGID_7_);}
	.st14{fill:url(#SVGID_8_);}
	.st15{fill:url(#SVGID_9_);}
	.st16{fill:url(#SVGID_10_);}
	.st17{fill:url(#SVGID_11_);}
	.st18{fill:none;stroke:url(#SVGID_12_);stroke-width:1.5;stroke-miterlimit:10;}
	.st19{fill:none;stroke:url(#SVGID_13_);stroke-width:1.5;stroke-miterlimit:10;}
	.st20{fill:#232F3E;stroke:url(#SVGID_14_);stroke-width:1.5;stroke-miterlimit:10;}
	.st21{fill:none;stroke:url(#SVGID_15_);stroke-width:1.5;stroke-miterlimit:10;}
	.st22{fill:url(#SVGID_16_);}
	.st23{fill:url(#SVGID_17_);}
	.st24{fill:url(#SVGID_18_);}
	.st25{fill:url(#SVGID_19_);}
	.st26{fill:url(#SVGID_20_);}
	.st27{fill:none;stroke:#232F3E;stroke-width:1.5;stroke-miterlimit:10;}
	.st28{fill:#232F3E;stroke:#232F3E;stroke-width:1.5;stroke-miterlimit:10;}
	.st29{fill:none;stroke:#232F3E;stroke-miterlimit:10;}
	.st30{fill:#232F3E;stroke:#232F3E;stroke-miterlimit:10;}
	.st31{fill:none;stroke:#FFFFFF;stroke-width:1.5;stroke-miterlimit:10;}
	.st32{fill:none;stroke:#FFFFFF;stroke-miterlimit:10;}
	.st33{fill:#232F3E;stroke:#FFFFFF;stroke-miterlimit:10;}
	.st34{display:inline;opacity:0.3;}
	.st35{fill:#EA2B7B;}
	.st36{display:inline;opacity:0.29;}
	.st37{fill:#EB008B;}
	.st38{display:inline;}
</style>
<g id="CARDS">
	<g>
		<g>
			<rect x="1" y="1" class="st0" width="78" height="78"/>
			<path class="st2" d="M0,0v80h0v50h80V80h0V0H0z M1,1h78v78H1V1z"/>
		</g>
	</g>
</g>
<g id="SPECS">
</g>
<g id="TEXT_-_EDIT">
	<g>
		<g>
			<path class="st0" d="M13.53,100.39l-0.47-2.14H10.9l-0.46,2.14H8.53l2.5-9.01h2.01l2.48,9.01H13.53z M11.17,96.95h1.61
				l-0.82-3.73L11.17,96.95z"/>
			<path class="st0" d="M23.05,100.39v-4.38c0-0.37-0.05-0.65-0.15-0.82c-0.1-0.17-0.27-0.26-0.5-0.26c-0.25,0-0.54,0.1-0.86,0.31
				c0.01,0.04,0.01,0.09,0.01,0.14s0,0.1,0,0.16v4.85h-1.78v-4.38c0-0.37-0.05-0.65-0.15-0.82c-0.1-0.17-0.27-0.26-0.5-0.26
				c-0.24,0-0.52,0.1-0.85,0.31v5.15H16.5v-6.64h1.46l0.14,0.6c0.69-0.51,1.34-0.77,1.95-0.77c0.62,0,1.05,0.26,1.3,0.79
				c0.71-0.53,1.37-0.79,1.98-0.79c0.49,0,0.86,0.17,1.12,0.5c0.26,0.33,0.39,0.81,0.39,1.44v4.88H23.05z"/>
			<path class="st0" d="M29.61,100.39l-0.16-0.6c-0.15,0.23-0.36,0.41-0.64,0.55c-0.28,0.14-0.56,0.21-0.84,0.21
				c-0.54,0-0.96-0.18-1.27-0.53c-0.31-0.35-0.47-0.83-0.47-1.45c0-0.65,0.19-1.16,0.57-1.54s0.9-0.57,1.55-0.57
				c0.27,0,0.6,0.05,1,0.16v-0.6c0-0.45-0.06-0.76-0.18-0.92c-0.12-0.16-0.34-0.24-0.66-0.24c-0.52,0-1.16,0.14-1.91,0.42v-1.18
				c0.25-0.16,0.58-0.29,0.99-0.39c0.41-0.1,0.82-0.14,1.25-0.14c0.75,0,1.3,0.17,1.64,0.51c0.34,0.34,0.51,0.89,0.51,1.64v4.65
				H29.61z M28.49,99.32c0.29,0,0.57-0.14,0.86-0.42v-1.27c-0.19-0.06-0.42-0.09-0.68-0.09c-0.25,0-0.44,0.08-0.58,0.24
				c-0.13,0.16-0.2,0.39-0.2,0.7c0,0.26,0.05,0.47,0.16,0.62C28.16,99.24,28.31,99.32,28.49,99.32z"/>
			<path class="st0" d="M32.18,100.39v-1.26l2.69-4.02h-2.59v-1.36h4.46v1.26l-2.69,4.02h2.74v1.37H32.18z"/>
			<path class="st0" d="M40.42,100.56c-0.86,0-1.52-0.3-1.99-0.91c-0.47-0.61-0.7-1.46-0.7-2.57c0-1.12,0.23-1.98,0.7-2.59
				c0.47-0.61,1.13-0.91,1.99-0.91s1.52,0.3,1.99,0.91c0.47,0.61,0.7,1.47,0.7,2.59c0,1.11-0.23,1.97-0.7,2.57
				C41.94,100.26,41.28,100.56,40.42,100.56z M40.42,99.21c0.32,0,0.55-0.17,0.7-0.51c0.14-0.34,0.21-0.88,0.21-1.62
				c0-0.74-0.07-1.28-0.21-1.62c-0.14-0.35-0.38-0.52-0.7-0.52s-0.55,0.17-0.7,0.52c-0.14,0.35-0.21,0.89-0.21,1.62
				c0,0.74,0.07,1.28,0.21,1.62C39.87,99.04,40.1,99.21,40.42,99.21z"/>
			<path class="st0" d="M47.85,100.39v-4.37c0-0.38-0.05-0.66-0.16-0.83c-0.1-0.17-0.28-0.26-0.53-0.26c-0.27,0-0.56,0.1-0.88,0.31
				v5.15h-1.78v-6.64h1.46l0.14,0.6c0.69-0.51,1.36-0.77,1.99-0.77c0.5,0,0.89,0.16,1.15,0.49c0.26,0.33,0.4,0.81,0.4,1.44v4.88
				H47.85z"/>
			<path class="st0" d="M54.25,100.39v-9.01h4.69v1.39h-2.87v2.43h2.25v1.39h-2.25v3.8H54.25z"/>
			<path class="st0" d="M61.61,96.38c-0.64-0.35-1.1-0.72-1.38-1.12s-0.42-0.88-0.42-1.46c0-0.53,0.12-0.99,0.36-1.38
				s0.57-0.7,0.99-0.91c0.42-0.21,0.9-0.32,1.45-0.32c0.68,0,1.36,0.16,2.04,0.47v1.38c-0.7-0.26-1.32-0.39-1.86-0.39
				c-0.36,0-0.65,0.09-0.86,0.27c-0.21,0.18-0.31,0.43-0.31,0.75c0,0.27,0.07,0.49,0.2,0.66c0.13,0.17,0.39,0.36,0.77,0.57l0.7,0.38
				c0.45,0.24,0.81,0.49,1.07,0.73c0.26,0.24,0.46,0.51,0.58,0.81s0.19,0.66,0.19,1.08c0,0.82-0.27,1.48-0.8,1.96
				c-0.53,0.48-1.27,0.72-2.2,0.72c-0.41,0-0.81-0.05-1.22-0.14c-0.41-0.09-0.75-0.22-1.03-0.38V98.7c0.32,0.12,0.68,0.22,1.09,0.31
				c0.4,0.08,0.75,0.12,1.03,0.12c0.42,0,0.73-0.1,0.95-0.29c0.22-0.19,0.32-0.47,0.32-0.84c0-0.27-0.08-0.5-0.23-0.68
				c-0.15-0.19-0.41-0.38-0.76-0.57L61.61,96.38z"/>
			<path class="st0" d="M69.56,100.39l-1.08-2.11l-0.92,2.11H65.8l1.86-3.34l-1.83-3.3h1.91l0.98,2.04l0.9-2.04h1.76l-1.83,3.3
				l1.94,3.34H69.56z"/>
			<path class="st0" d="M15.71,116.39v-5.34h-0.84v-1.09l0.84-0.18V109c0-0.81,0.17-1.42,0.52-1.81c0.35-0.39,0.88-0.59,1.6-0.59
				c0.41,0,0.8,0.08,1.17,0.25v1.2c-0.25-0.06-0.48-0.09-0.68-0.09c-0.32,0-0.54,0.07-0.66,0.2c-0.12,0.13-0.18,0.37-0.18,0.73v0.88
				h1.44v1.3h-1.44v5.34H15.71z"/>
			<path class="st0" d="M22.26,116.56c-0.86,0-1.52-0.3-1.99-0.91c-0.47-0.61-0.7-1.46-0.7-2.57c0-1.12,0.23-1.98,0.7-2.59
				c0.47-0.61,1.13-0.91,1.99-0.91s1.52,0.3,1.99,0.91c0.47,0.61,0.7,1.47,0.7,2.59c0,1.11-0.23,1.97-0.7,2.57
				C23.78,116.26,23.12,116.56,22.26,116.56z M22.26,115.21c0.32,0,0.55-0.17,0.7-0.51c0.14-0.34,0.21-0.88,0.21-1.62
				c0-0.74-0.07-1.28-0.21-1.62c-0.14-0.35-0.38-0.52-0.7-0.52s-0.55,0.17-0.7,0.52c-0.14,0.35-0.21,0.89-0.21,1.62
				c0,0.74,0.07,1.28,0.21,1.62C21.71,115.04,21.94,115.21,22.26,115.21z"/>
			<path class="st0" d="M26.33,116.39v-6.64h1.46l0.19,0.86c0.26-0.32,0.52-0.55,0.77-0.7c0.26-0.15,0.53-0.22,0.81-0.22
				c0.14,0,0.28,0.01,0.42,0.04v1.57c-0.24-0.04-0.47-0.07-0.69-0.07c-0.42,0-0.81,0.1-1.18,0.31v4.85H26.33z"/>
			<path class="st0" d="M33.91,116.39v-9.01h1.82v7.57h3.07v1.44H33.91z"/>
			<path class="st0" d="M43.28,116.39l-0.14-0.6c-0.67,0.51-1.31,0.77-1.92,0.77c-0.49,0-0.85-0.17-1.1-0.51
				c-0.25-0.34-0.38-0.83-0.38-1.47v-4.84h1.78v4.28c0,0.42,0.05,0.73,0.14,0.91c0.1,0.18,0.26,0.27,0.48,0.27
				c0.26,0,0.53-0.1,0.82-0.3v-5.16h1.78v6.64H43.28z"/>
			<path class="st0" d="M48.56,114.54c0-0.3-0.19-0.55-0.56-0.74l-0.78-0.4c-0.81-0.42-1.22-1.04-1.22-1.88c0-0.58,0.2-1.05,0.6-1.4
				c0.4-0.35,0.93-0.53,1.59-0.53c0.57,0,1.12,0.14,1.65,0.42v1.18c-0.24-0.1-0.49-0.17-0.75-0.23c-0.26-0.06-0.48-0.08-0.65-0.08
				c-0.55,0-0.83,0.21-0.83,0.64c0,0.28,0.23,0.54,0.69,0.78l0.78,0.4c0.38,0.2,0.66,0.44,0.83,0.73c0.17,0.29,0.26,0.66,0.26,1.1
				c0,0.63-0.2,1.13-0.6,1.5c-0.4,0.36-0.93,0.55-1.6,0.55c-0.72,0-1.37-0.17-1.96-0.52v-1.18c0.74,0.28,1.32,0.42,1.74,0.42
				c0.27,0,0.47-0.06,0.61-0.2C48.49,114.95,48.56,114.77,48.56,114.54z"/>
			<path class="st0" d="M54.57,116.23c-0.43,0.17-0.88,0.26-1.33,0.26c-0.65,0-1.12-0.16-1.42-0.48c-0.29-0.32-0.44-0.83-0.44-1.53
				v-3.42h-0.79v-1.09l0.85-0.18l0.26-1.82h1.47v1.79h1.38v1.3h-1.38v3.26c0,0.29,0.05,0.5,0.16,0.62s0.29,0.18,0.57,0.18
				c0.21,0,0.43-0.03,0.68-0.09V116.23z"/>
			<path class="st0" d="M55.64,116.39v-6.64h1.46l0.19,0.86c0.26-0.32,0.52-0.55,0.77-0.7c0.26-0.15,0.53-0.22,0.81-0.22
				c0.14,0,0.28,0.01,0.42,0.04v1.57c-0.24-0.04-0.47-0.07-0.69-0.07c-0.42,0-0.81,0.1-1.18,0.31v4.85H55.64z"/>
			<path class="st0" d="M61.55,113.52c0.03,0.62,0.16,1.07,0.39,1.33c0.23,0.26,0.62,0.39,1.14,0.39c0.2,0,0.44-0.03,0.73-0.1
				c0.29-0.06,0.58-0.15,0.86-0.25v1.18c-0.24,0.16-0.54,0.28-0.9,0.36s-0.71,0.13-1.07,0.13c-1.85,0-2.78-1.16-2.78-3.48
				c0-1.13,0.23-2,0.68-2.6s1.11-0.9,1.97-0.9c1.47,0,2.21,0.9,2.21,2.7c0,0.45-0.04,0.86-0.13,1.24H61.55z M62.53,110.79
				c-0.62,0-0.95,0.54-0.99,1.61h1.74v-0.3c0-0.47-0.06-0.8-0.18-1.01C62.99,110.89,62.79,110.79,62.53,110.79z"/>
		</g>
	</g>
</g>
<g id="ICONS_-_EDIT">
	<g>
		<g>
			<g>
				<g>
					<path class="st2" d="M64.32,48.23H62.9c0-3.99-2.27-8.01-7.34-8.01c-5.41,0-7.34,4.14-7.34,8.01H46.8
						c0-4.35,2.29-9.43,8.76-9.43C61.58,38.8,64.32,43.69,64.32,48.23z"/>
					<path class="st2" d="M55.56,48.27h-6.08v-0.71c0-3.24,2.84-6.08,6.08-6.08c0.72,0,1.43,0.13,2.1,0.37l-0.49,1.33
						c-0.51-0.19-1.06-0.29-1.61-0.29c-2.38,0-4.22,1.96-4.59,3.95h4.59V48.27z"/>
					<g>
						<polygon class="st2" points="61.96,39.76 55.05,47.13 56.08,47.98 						"/>
						<polygon class="st2" points="56.21,49.01 54.01,47.2 61.45,39.28 62.54,40.17 						"/>
					</g>
					<path class="st2" d="M55.56,48.94c-0.76,0-1.38-0.62-1.38-1.38c0-0.76,0.62-1.38,1.38-1.38c0.76,0,1.38,0.62,1.38,1.38
						C56.94,48.32,56.33,48.94,55.56,48.94z M55.56,47.52l0.04,0.04C55.6,47.53,55.59,47.52,55.56,47.52z"/>
				</g>
			</g>
		</g>
		<g>
			<g>
				<path class="st2" d="M15.68,48V31.02h9.53v1.3h-8.08v6.49h6.84v1.3h-6.84V48H15.68z"/>
				<path class="st2" d="M29.91,39.42c-1.26-0.49-2.18-1.07-2.77-1.75c-0.59-0.68-0.88-1.51-0.88-2.51c0-1.36,0.49-2.45,1.46-3.3
					c0.97-0.84,2.25-1.26,3.83-1.26c0.72,0,1.47,0.09,2.27,0.26c0.79,0.17,1.54,0.41,2.24,0.72v1.25c-1.67-0.59-3.14-0.88-4.43-0.88
					c-1.26,0-2.22,0.27-2.89,0.82c-0.67,0.55-1,1.33-1,2.34c0,0.57,0.1,1.03,0.31,1.38c0.2,0.35,0.54,0.67,1,0.96
					c0.47,0.29,1.13,0.59,2,0.92l2.62,1c1.18,0.46,2.03,1.02,2.57,1.68c0.54,0.66,0.81,1.49,0.81,2.49c0,1.45-0.54,2.63-1.6,3.53
					c-1.07,0.9-2.48,1.35-4.23,1.35c-1.81,0-3.43-0.34-4.85-1.03v-1.25c1.71,0.62,3.29,0.93,4.73,0.93c1.36,0,2.44-0.32,3.25-0.96
					c0.81-0.64,1.21-1.5,1.21-2.6c0-0.67-0.22-1.24-0.66-1.71c-0.44-0.47-1.15-0.9-2.13-1.27L29.91,39.42z"/>
				<polygon class="st2" points="43.24,38.3 40.35,34.17 38.29,34.17 42.21,39.68 				"/>
				<path class="st2" d="M46.58,42.95l-1.56-2.22l4.71-6.56h-1.95l-3.72,5.31l-1,1.38l2.83,4.06
					C46.05,44.23,46.28,43.57,46.58,42.95z"/>
			</g>
			<polygon class="st2" points="43.12,43.28 39.83,48.09 37.86,48.09 42.23,42.03 			"/>
		</g>
	</g>
</g>
<g id="PADDING_1_" class="st7">
</g>
</svg>
